<svg xmlns="http://www.w3.org/2000/svg" xmlns:xlink="http://www.w3.org/1999/xlink" width="19" height="23" viewBox="0 0 19 23"><defs><path id="1b40a" d="M1390.73 629.22c-.37-1.73-.9-3.4-1.7-4.98-.64-1.3-1.43-2.5-2.5-3.47a6.3 6.3 0 0 0-7.81-.73l.74 4 2.44-1.55-.45 9.25-1.23-6.27-2.51 1.6.31-6.5-.23.2a11.33 11.33 0 0 0-2.51 3.47 20.63 20.63 0 0 0-1.7 4.98 20 20 0 0 0-.5 4.5 8.37 8.37 0 0 0 4.97 7.45 9.8 9.8 0 0 0 4.09.83c1.4.01 2.77-.26 4.08-.83a8.37 8.37 0 0 0 4.97-7.45c.08-1.52-.15-3.02-.46-4.5"/></defs><g><g transform="translate(-1373 -619)"><use fill="#434343" xlink:href="#1b40a"/></g></g></svg>