<svg xmlns="http://www.w3.org/2000/svg" xmlns:xlink="http://www.w3.org/1999/xlink" width="19" height="23" viewBox="0 0 19 23"><defs><path id="z0oca" d="M1315.2 629.22c-.37-1.73-.91-3.4-1.7-4.98-.64-1.3-1.43-2.5-2.5-3.47a6.3 6.3 0 0 0-7.81-.73l.73 4 2.45-1.55c-.15 3-.3 5.88-.45 9.25-.46-2.35-.83-4.25-1.24-6.27l-2.5 1.6.31-6.5-.24.2a11.33 11.33 0 0 0-2.5 3.47 20.63 20.63 0 0 0-1.7 4.98 20 20 0 0 0-.5 4.5 8.37 8.37 0 0 0 4.97 7.45 9.8 9.8 0 0 0 4.08.83c1.4.01 2.78-.26 4.09-.83a8.37 8.37 0 0 0 4.97-7.45c.07-1.52-.15-3.02-.46-4.5"/></defs><g><g transform="translate(-1297 -619)"><use fill="#3ed4e0" xlink:href="#z0oca"/></g></g></svg>