<svg xmlns="http://www.w3.org/2000/svg" xmlns:xlink="http://www.w3.org/1999/xlink" width="20" height="20" viewBox="0 0 20 20"><defs><path id="cxjsa" d="M1489.6 264.32c-.19-.9-.47-1.77-.88-2.6a5.9 5.9 0 0 0-1.31-1.81 3.28 3.28 0 0 0-4.09-.38l.38 2.1 1.28-.82-.23 4.84-.64-3.28-1.32.83.17-3.4-.12.11a5.95 5.95 0 0 0-1.31 1.81c-.41.83-.7 1.7-.89 2.6-.16.79-.28 1.57-.26 2.36a4.38 4.38 0 0 0 2.6 3.9c.69.3 1.4.44 2.14.44.74 0 1.45-.14 2.14-.44a4.38 4.38 0 0 0 2.6-3.9c.02-.8-.09-1.58-.25-2.36zM1485 275a10 10 0 1 1 0-20 10 10 0 0 1 0 20z"/></defs><g><g transform="translate(-1475 -255)"><use fill="#222" xlink:href="#cxjsa"/></g></g></svg>