<svg xmlns="http://www.w3.org/2000/svg" xmlns:xlink="http://www.w3.org/1999/xlink" width="21" height="20" viewBox="0 0 21 20"><defs><path id="le96a" d="M1537.9 262.12c-.35.16-.74.27-1.13.31.4-.24.72-.63.87-1.1-.39.23-.81.4-1.26.49a1.98 1.98 0 0 0-3.38 1.8 5.63 5.63 0 0 1-4.08-2.07 1.98 1.98 0 0 0 .61 2.64 2 2 0 0 1-.9-.24v.03c0 .96.69 1.76 1.6 1.94a1.92 1.92 0 0 1-.9.03c.25.79.98 1.36 1.85 1.38a3.98 3.98 0 0 1-2.93.82c.87.56 1.91.89 3.04.89a5.6 5.6 0 0 0 5.63-5.64v-.26c.38-.27.72-.62.98-1.02zm-4.94 12.88a10 10 0 1 1 0-20 10 10 0 0 1 0 20z"/></defs><g><g transform="translate(-1522 -255)"><use fill="#222" xlink:href="#le96a"/></g></g></svg>