<svg xmlns="http://www.w3.org/2000/svg" xmlns:xlink="http://www.w3.org/1999/xlink" width="17" height="22" viewBox="0 0 17 22"><defs><path id="4bafa" d="M677.88 333.67c.22-.44.44-1 .66-1.44.33-.55.44-.99.55-1.54.12-.22.12-.55.12-.89 0-.33-.12-.55-.12-.88-.1-.33-.1-.55-.22-1-.66-.21-.99-.88-1.54-1.43-.33 0-.77.11-1.22.11-.22 0-.44.11-.55-.1h-.1a.94.94 0 0 1-.78 0c-.22-.12-.55 0-.77 0-.23 0-.45 0-.67-.23.33-.22.67-.55 1.1-.66.12 0 .23-.11.34-.11.44-.33 1.1-.44 1.54-.66.11-.11.23-.11.45-.23h.33c.1-.1.22-.22.22-.44 0-.44.1-.77.1-1.21.12-.33.12-.77.23-1.1.11-.45.22-1 .44-1.44a4.1 4.1 0 0 1 1.88-2.43c.55-.33 1.21-.55 1.99-.88.1-.67.44-1.22.77-1.88.1-.22.1-.44 0-.55-.11-.22-.11-.55-.22-.78.44-.22.88-.22 1.32-.22.55-.22 1-.66 1.66-.55.55-.33 1.1 0 1.65.11.12 0 .12.11.23.11.66.44 1.21 1 1.43 1.77.11.22.22.55.22.88.11.33.11.66.11 1 0 .22 0 .44-.1.77-.12.22.1.44-.12.66 0 .55-.1 1-.1 1.55 0 .44.21.88.43 1.32.22.66.11 1.33.11 1.88-.22.55-.44 1.1-.77 1.66l-1 1.32c-.1.11-.21.33-.32.44-.34.44-.89.89-1.33 1.22l-.33.33c0 .33.1.66.1 1 .12.32.34.54.67.76.11.12.33.23.44.34.22.22.45.44.67.55.33.22.55.55.66.88.1.44.44.77.55 1.22 0 .1.11.22.22.33 0 .1.11.33.11.55-.22 0-.44-.22-.44-.33-.11-.33-.33-.55-.33-.89 0-.1-.11-.1-.22-.22-.22.34 0 .78-.22 1.1-.11.34.1.78-.22 1h-.11c-.11-.66.22-1.21 0-1.88-.22 0-.34.23-.45.34-.1.22-.1.33-.22.44-.1.1-.22.1-.33.33.22-.88.78-1.55 1-2.32-.11-.44-.45-.66-.78-1a6.07 6.07 0 0 0-1-.77c-.43-.22-.76-.55-1.2-.77l-.23-.22-.22-.22c-.33.1-.44.1-.55.1-.1 0-.33.12-.44 0-.11-.1-.33-.1-.44-.1h-2.21c-.22.44-.55 1-.88 1.43v1.1c0 .45.1.78.33 1.11.22.44.44 1 .66 1.44 0 .1.11.22.11.33-.22 0-.33-.11-.33-.22-.22-.55-.55-1-.77-1.55l-.22.22c0 .22.1.56 0 .78-.12.22-.12.44-.12.77 0 .22 0 .44-.22.66l-.22-.22c0-.55.11-1.21.11-1.77-.22-.1-.33 0-.33.23-.1.22-.22.55-.33.77-.1.1-.22.1-.22.22z"/></defs><g><g transform="translate(-673 -313)"><use fill="#3ed4e0" xlink:href="#4bafa"/></g></g></svg>