<svg xmlns="http://www.w3.org/2000/svg" xmlns:xlink="http://www.w3.org/1999/xlink" width="50" height="50" viewBox="0 0 50 50"><defs><path id="gl6sa" d="M491.2 1117c0 4.39-1.09 8.44-3.25 12.14A24.09 24.09 0 0 1 467 1141.2c-4.39 0-8.44-1.09-12.14-3.25A24.09 24.09 0 0 1 442.8 1117c0-4.39 1.09-8.44 3.25-12.14A24.09 24.09 0 0 1 467 1092.8c4.39 0 8.44 1.09 12.14 3.25A24.09 24.09 0 0 1 491.2 1117zm-7.94-5.1c0-.6-.2-1.07-.57-1.45l-2.87-2.84c-.4-.4-.87-.6-1.42-.6-.54 0-1.01.2-1.41.6l-12.86 12.82-7.12-7.12c-.4-.4-.87-.6-1.41-.6-.55 0-1.02.2-1.42.6l-2.87 2.84c-.38.38-.57.86-.57 1.45 0 .57.2 1.04.57 1.42l11.4 11.4c.4.4.88.6 1.42.6.57 0 1.05-.2 1.45-.6l17.1-17.1c.39-.38.58-.86.58-1.42z"/></defs><g><g transform="translate(-442 -1092)"><use fill="#fff" xlink:href="#gl6sa"/></g></g></svg>