<svg xmlns="http://www.w3.org/2000/svg" xmlns:xlink="http://www.w3.org/1999/xlink" width="20" height="17" viewBox="0 0 20 17"><defs><path id="skm7a" d="M834.37 128.9c.1 0 .2.04.26.11.07.07.11.16.11.27v6.74c0 .11-.04.2-.1.27a.37.37 0 0 1-.27.1h-18.73c-.1 0-.2-.03-.26-.1a.37.37 0 0 1-.11-.27v-6.74c0-.1.04-.2.1-.27.08-.07.17-.1.27-.1h2.25c.11 0 .2.03.27.1s.1.16.1.27v4.12h13.48v-4.12c0-.1.04-.2.11-.27s.16-.1.27-.1zm-3.43-2.53c.13.32.08.59-.17.82l-5.24 5.24a.7.7 0 0 1-.52.22.7.7 0 0 1-.53-.22l-5.24-5.24c-.25-.23-.3-.5-.17-.82a.7.7 0 0 1 .7-.46h2.99v-5.24c0-.2.07-.38.22-.53a.72.72 0 0 1 .53-.22h3c.2 0 .37.07.52.22.15.15.22.33.22.53v5.24h3a.7.7 0 0 1 .69.46z"/></defs><g><g transform="translate(-815 -120)"><use fill="#fff" xlink:href="#skm7a"/></g></g></svg>