<svg xmlns="http://www.w3.org/2000/svg" xmlns:xlink="http://www.w3.org/1999/xlink" width="60" height="70" viewBox="0 0 60 70"><defs><path id="6k8xa" d="M694 228.13h-44c0-5.83 6.56-26.73 12.53-30.35.15-.09-1.24 17.35-1 17.22 2.2-1.34 4.65-2.24 6.9-3.87.19-.14 2.54 11.58 2.8 11.35.25-.22 1.72-18.5 2.02-18.78l-7.6 3.9-1.88-11.39c2.5-2.18 5.3-3.54 8.23-3.54 12.15 0 22 23.3 22 35.46z"/><path id="6k8xb" d="M672 192.67a9.9 9.9 0 0 0-2.45.33c11 2.8 19.57 23.8 19.57 35.13H694c0-12.15-9.86-35.46-22.01-35.46z"/><path id="6k8xc" d="M659.47 227.61c0 13.35 5.2 25.45 13.68 34.43a29.24 29.24 0 0 1-30.38-29.2v-5.23z"/><path id="6k8xd" d="M701.24 227.61v5.22a29.23 29.23 0 0 1-28.1 29.2 49.96 49.96 0 0 1-13.67-34.42z"/><path id="6k8xe" d="M698.1 227.61h-2.08c0 4.13 1.85 7.82 4.77 10.31.14-.85.26-1.7.33-2.58a11.43 11.43 0 0 1-3.02-7.73z"/><path id="6k8xf" d="M693.93 227.61h-2.1c0 6.11 3.11 11.51 7.83 14.7.23-.7.45-1.4.64-2.12a15.63 15.63 0 0 1-6.37-12.58z"/><path id="6k8xg" d="M689.75 227.61h-2.09c0 7.84 4.15 14.7 10.34 18.58.32-.62.62-1.25.9-1.9a19.83 19.83 0 0 1-9.15-16.68z"/><path id="6k8xh" d="M695.82 249.78c.4-.57.79-1.15 1.15-1.75a24.02 24.02 0 0 1-11.4-20.42h-2.08a26.1 26.1 0 0 0 12.33 22.17z"/><path id="6k8xi" d="M693.14 253.02c.49-.51.95-1.04 1.4-1.59-7.89-5-13.14-13.8-13.14-23.82h-2.1c0 10.64 5.53 20 13.84 25.4z"/><path id="6k8xj" d="M677.22 227.61h-2.09c0 11.7 5.87 22.06 14.82 28.3.57-.45 1.12-.92 1.65-1.4a32.36 32.36 0 0 1-14.38-26.9z"/><path id="6k8xk" d="M673.04 227.61h-2.08c0 12.54 6 23.69 15.28 30.75.65-.37 1.3-.76 1.92-1.17a36.51 36.51 0 0 1-15.12-29.58z"/><path id="6k8xl" d="M668.87 227.61h-2.1c0 13.1 5.93 24.83 15.22 32.7a29.4 29.4 0 0 0 2.2-.9 40.66 40.66 0 0 1-15.32-31.8z"/><path id="6k8xm" d="M664.7 227.61h-2.1a46.84 46.84 0 0 0 14.6 33.99c.83-.15 1.65-.34 2.46-.56a44.8 44.8 0 0 1-14.97-33.43z"/><path id="6k8xn" d="M659.6 231.12a23.94 23.94 0 0 1-7.88-3.5h-3.42a26.04 26.04 0 0 0 11.5 5.69c-.08-.73-.14-1.46-.2-2.2z"/><path id="6k8xo" d="M660.49 237.68c-.15-.72-.28-1.46-.4-2.2a28.15 28.15 0 0 1-14.87-7.87h-2.46v.44a30.27 30.27 0 0 0 17.73 9.63z"/><path id="6k8xp" d="M660.98 239.85a32.28 32.28 0 0 1-18.22-8.8v1.78c0 .36.02.7.03 1.06a34.31 34.31 0 0 0 18.78 8.15 52.8 52.8 0 0 1-.6-2.19z"/><path id="6k8xq" d="M662.27 244.19a36.34 36.34 0 0 1-19.23-7.41c.13 1.01.32 2 .56 2.99a38.4 38.4 0 0 0 19.49 6.57 48.1 48.1 0 0 1-.82-2.15z"/><path id="6k8xr" d="M664 248.46a40.44 40.44 0 0 1-19.49-5.65c.4 1.07.85 2.11 1.36 3.12a42.52 42.52 0 0 0 19.16 4.65c-.36-.7-.7-1.4-1.03-2.12z"/><path id="6k8xs" d="M667.4 254.7c-.42-.67-.84-1.35-1.24-2.05l-.93.02a44.65 44.65 0 0 1-17.51-3.56 29.25 29.25 0 0 0 2.45 3.16 46.75 46.75 0 0 0 17.24 2.44z"/><path id="6k8xt" d="M668.77 256.7a48.96 48.96 0 0 1-15.35-1.3 29.4 29.4 0 0 0 4.39 3 51.34 51.34 0 0 0 12.45.29c-.51-.65-1.01-1.3-1.5-1.98z"/></defs><g><g transform="translate(-642 -192)"><use fill="#ebebeb" xlink:href="#6k8xa"/></g><g transform="translate(-642 -192)"><use fill="#bebebe" xlink:href="#6k8xb"/></g><g transform="translate(-642 -192)"><g><use fill="#3ed4e0" xlink:href="#6k8xc"/></g><g><use fill="#3ed4e0" xlink:href="#6k8xd"/></g><g><g><use fill="#ff7979" xlink:href="#6k8xe"/></g><g><use fill="#ff7979" xlink:href="#6k8xf"/></g><g><use fill="#ff7979" xlink:href="#6k8xg"/></g><g><use fill="#ff7979" xlink:href="#6k8xh"/></g><g><use fill="#ff7979" xlink:href="#6k8xi"/></g><g><use fill="#ff7979" xlink:href="#6k8xj"/></g><g><use fill="#ff7979" xlink:href="#6k8xk"/></g><g><use fill="#ff7979" xlink:href="#6k8xl"/></g><g><use fill="#ff7979" xlink:href="#6k8xm"/></g></g><g><use fill="#ff7979" xlink:href="#6k8xn"/></g><g><use fill="#ff7979" xlink:href="#6k8xo"/></g><g><use fill="#ff7979" xlink:href="#6k8xp"/></g><g><use fill="#ff7979" xlink:href="#6k8xq"/></g><g><use fill="#ff7979" xlink:href="#6k8xr"/></g><g><use fill="#ff7979" xlink:href="#6k8xs"/></g><g><use fill="#ff7979" xlink:href="#6k8xt"/></g></g></g></svg>