<svg xmlns="http://www.w3.org/2000/svg" xmlns:xlink="http://www.w3.org/1999/xlink" width="34" height="41" viewBox="0 0 34 41"><defs><path id="c7kga" d="M637.7 265.83a28.26 28.26 0 0 0-2.27-6.7 15.23 15.23 0 0 0-3.38-4.65 8.43 8.43 0 0 0-10.49-.97l.98 5.37 3.3-2.08c-.2 4.02-.4 7.9-.61 12.43l-1.66-8.43-3.38 2.13.43-8.72-.31.27a15.4 15.4 0 0 0-3.37 4.66 28.08 28.08 0 0 0-2.27 6.69c-.43 2-.71 4-.66 6.05.1 4.44 2.8 8.32 6.68 10.01 1.76.77 3.6 1.13 5.5 1.12 1.9.02 3.73-.35 5.5-1.12a11.25 11.25 0 0 0 6.68-10c.05-2.06-.24-4.07-.67-6.06z"/><mask id="c7kgc" width="2" height="2" x="-1" y="-1"><path fill="#fff" d="M614 252h25v32h-25z"/><use xlink:href="#c7kga"/></mask><filter id="c7kgb" width="57" height="67" x="598" y="236" filterUnits="userSpaceOnUse"><feOffset dy="3" in="SourceGraphic" result="FeOffset1177Out"/><feGaussianBlur in="FeOffset1177Out" result="FeGaussianBlur1178Out" stdDeviation="2.4 2.4"/></filter></defs><g><g transform="translate(-609 -250)"><g filter="url(#c7kgb)"><use fill="none" stroke-opacity=".16" stroke-width="0" mask="url(&quot;#c7kgc&quot;)" xlink:href="#c7kga"/><use fill-opacity=".16" xlink:href="#c7kga"/></g><use fill="#faae03" xlink:href="#c7kga"/></g></g></svg>