<svg xmlns="http://www.w3.org/2000/svg" xmlns:xlink="http://www.w3.org/1999/xlink" width="25" height="32" viewBox="0 0 25 32"><defs><path id="iaywa" d="M397.7 274.83a28.26 28.26 0 0 0-2.27-6.7 15.23 15.23 0 0 0-3.38-4.65 8.43 8.43 0 0 0-10.49-.97l.98 5.37 3.3-2.08c-.2 4.02-.4 7.9-.61 12.43l-1.66-8.43-3.38 2.13.43-8.72-.31.27a15.4 15.4 0 0 0-3.37 4.66 28.08 28.08 0 0 0-2.27 6.69c-.43 2-.71 4-.66 6.05.1 4.44 2.8 8.32 6.68 10.01 1.76.77 3.6 1.13 5.5 1.12 1.9.02 3.73-.35 5.5-1.12a11.25 11.25 0 0 0 6.68-10c.05-2.06-.24-4.07-.67-6.06z"/></defs><g><g transform="translate(-374 -261)"><use fill="#222" xlink:href="#iaywa"/></g></g></svg>