<svg xmlns="http://www.w3.org/2000/svg" xmlns:xlink="http://www.w3.org/1999/xlink" width="21" height="21" viewBox="0 0 21 21"><defs><path id="1j7za" d="M1542.23 68.78c-.1.33-.23.6-.37.81a5.58 5.58 0 0 1-1.86 1.5c-.3.16-.54.38-.73.65-.2.28-.3.5-.3.67 0 .12-.03.22-.11.3a.42.42 0 0 1-.31.12h-2.57a.42.42 0 0 1-.3-.12.42.42 0 0 1-.12-.3v-.49c0-.6.23-1.15.7-1.67s.98-.91 1.54-1.16c.43-.2.73-.4.91-.6.18-.2.27-.48.27-.82 0-.3-.17-.55-.5-.79a1.96 1.96 0 0 0-1.15-.34c-.46 0-.84.1-1.15.32-.29.21-.67.62-1.15 1.23a.4.4 0 0 1-.33.16c-.1 0-.2-.03-.25-.08l-1.77-1.34c-.2-.16-.24-.35-.1-.56a5.46 5.46 0 0 1 9.08-.75 3.59 3.59 0 0 1 .57 3.26zm-3.25 7.9c0 .13-.04.23-.12.31a.42.42 0 0 1-.31.12h-2.57a.42.42 0 0 1-.3-.12.42.42 0 0 1-.12-.3v-2.57c0-.13.04-.23.12-.31a.42.42 0 0 1 .3-.12h2.57c.12 0 .23.04.3.12.09.08.13.18.13.3zm7.18-11.57a10.22 10.22 0 0 0-8.9-5.11A10.22 10.22 0 0 0 1527 70.27a10.22 10.22 0 0 0 10.27 10.27 10.22 10.22 0 0 0 10.27-10.27c0-1.87-.46-3.58-1.37-5.16z"/></defs><g><g transform="translate(-1527 -60)"><use fill="#fff" xlink:href="#1j7za"/></g></g></svg>