<svg xmlns="http://www.w3.org/2000/svg" xmlns:xlink="http://www.w3.org/1999/xlink" width="16" height="15" viewBox="0 0 16 15"><defs><path id="5yipa" d="M1506.53 57.73h-11.32a.57.57 0 0 1 0-1.14h11.32c.48 0 .9-.25 1.14-.66.24-.41.24-.9 0-1.32l-5.66-9.8a1.3 1.3 0 0 0-1.14-.67c-.48 0-.9.25-1.14.66l-5.66 9.8a.57.57 0 0 1-.78.22.57.57 0 0 1-.21-.78l5.66-9.8a2.44 2.44 0 0 1 2.13-1.24c.9 0 1.69.46 2.14 1.23l5.66 9.8c.44.78.44 1.7 0 2.47a2.44 2.44 0 0 1-2.14 1.23z"/></defs><g><g transform="translate(-1493 -43)"><use fill="#fff" xlink:href="#5yipa"/></g></g></svg>