<svg xmlns="http://www.w3.org/2000/svg" xmlns:xlink="http://www.w3.org/1999/xlink" width="16" height="16" viewBox="0 0 16 16"><defs><path id="shfua" d="M879.72 635.57c0 1.13-.92 2.05-2.05 2.05h-5.34a2.06 2.06 0 0 1-2.05-2.05v-1.06a.64.64 0 1 1 1.28 0v1.06c0 .43.35.78.77.78h5.34c.42 0 .77-.35.77-.78v-1.06a.64.64 0 1 1 1.28 0zm-8.08-4.95l2.9-2.89.02-.02.01-.01h.01l.02-.02.02-.02h.01l.02-.02h.01l.02-.02h.01l.02-.01h.01l.02-.01h.01l.02-.02h.02l.02-.01h.01l.02-.01h.03l.02-.01h.27l.03.02h.04l.02.01.01.01h.01l.02.01h.01l.02.02.03.01v.01l.02.01h.01l.02.02.02.02.02.01.01.01.02.02 2.9 2.9a.66.66 0 1 1-.93.92l-.68-.68a.64.64 0 0 0-1.1.46V634a.66.66 0 0 1-1.3 0v-2.67a.64.64 0 0 0-1.1-.45l-.69.69a.66.66 0 0 1-.93-.01.66.66 0 0 1 0-.94zM875 625a8 8 0 1 0 0 16 8 8 0 0 0 0-16z"/></defs><g><g transform="translate(-867 -625)"><use fill="#fff" xlink:href="#shfua"/></g></g></svg>