<svg xmlns="http://www.w3.org/2000/svg" xmlns:xlink="http://www.w3.org/1999/xlink" width="16" height="16" viewBox="0 0 16 16"><defs><path id="baw3a" d="M856.73 633.52l-3.21 3.22-.03.03-.01.01-.02.01-.01.02h-.01l-.02.02h-.01l-.02.02h-.01l-.02.02h-.01l-.02.01h-.01l-.02.02h-.02-.01l-.02.02h-.02-.02v.01h-.03l-.01.01h-.03l-.03.01h-.02-.02-.02-.1-.02-.02-.02-.02-.01l-.02-.01h-.04v-.01h-.03l-.01-.01-.02-.01h-.02l-.01-.01-.02-.01h-.01l-.02-.02h-.02l-.01-.02h-.01l-.02-.02h-.01l-.02-.01-.01-.01-.02-.02h-.01l-.02-.02-.02-.03-3.23-3.22a.73.73 0 0 1 0-1.04.74.74 0 0 1 1.04.01l.76.76a.71.71 0 0 0 1.21-.5v-2.97a.72.72 0 0 1 .73-.73c.4 0 .73.33.73.73v2.97c0 .63.77.95 1.21.5l.76-.76a.73.73 0 1 1 1.03 1.03zm1.93-6.18a8 8 0 1 0-11.32 11.31 8 8 0 0 0 11.32-11.3z"/></defs><g><g transform="translate(-845 -625)"><use fill="#fff" xlink:href="#baw3a"/></g></g></svg>