<svg xmlns="http://www.w3.org/2000/svg" xmlns:xlink="http://www.w3.org/1999/xlink" width="17" height="17" viewBox="0 0 17 17"><defs><path id="g219a" d="M1293.58 53.86a5.82 5.82 0 1 1 8.25-8.22 5.82 5.82 0 0 1-8.25 8.22zm12.87 3.75l-3.34-3.33a7.02 7.02 0 0 0-.42-9.53 7 7 0 0 0-5-2.07 7 7 0 0 0-4.99 2.07 7.02 7.02 0 0 0-2.07 5c0 1.88.74 3.66 2.07 4.99a7.02 7.02 0 0 0 9.53.42l3.34 3.34c.12.12.28.18.44.18.16 0 .32-.06.44-.18a.63.63 0 0 0 0-.89z"/></defs><g><g transform="translate(-1290 -42)"><use fill="#fff" xlink:href="#g219a"/></g></g></svg>