<svg xmlns="http://www.w3.org/2000/svg" xmlns:xlink="http://www.w3.org/1999/xlink" width="43" height="43" viewBox="0 0 43 43"><defs><path id="yos5a" d="M553.32 280.66a10.3 10.3 0 0 1 3.04 7.33 10.3 10.3 0 0 1-3.04 7.34 10.3 10.3 0 0 1-7.34 3.04 10.3 10.3 0 0 1-7.33-3.04 10.3 10.3 0 0 1-3.04-7.34 10.3 10.3 0 0 1 3.04-7.33 10.3 10.3 0 0 1 7.33-3.04c2.77 0 5.38 1.08 7.34 3.04zm-24.4 7.33a17.05 17.05 0 0 0 26.52 14.19l9.85 9.84a3.34 3.34 0 1 0 4.72-4.73l-9.84-9.83a17.05 17.05 0 1 0-31.24-9.46z"/></defs><g><g transform="translate(-528 -270)"><use fill="#333" xlink:href="#yos5a"/></g></g></svg>