<svg xmlns="http://www.w3.org/2000/svg" xmlns:xlink="http://www.w3.org/1999/xlink" width="16" height="16" viewBox="0 0 16 16"><defs><path id="o60ca" d="M1066.93 948.98a.95.95 0 1 1-1.9-.02v-1.4c0-.83-1-1.24-1.6-.65l-2.73 2.74a.96.96 0 0 1-1.35 0 .95.95 0 0 1 0-1.35l2.74-2.74a.93.93 0 0 0-.66-1.58h-1.4a.95.95 0 1 1 0-1.91h6.07l.02.01h.03l.01.01h.03l.02.01h.03l.01.01.03.01h.02l.03.02h.02l.02.02h.02l.02.02h.02l.02.02.03.01v.01c.02 0 .03.01.03.02h.02l.02.03h.02l.02.02.02.02.01.01.07.07.01.01.02.02.01.02.01.02.02.02.01.02.02.02v.01l.02.03.01.02.01.02.01.02.01.02.01.02.01.02.01.03v.02a46.3 46.3 0 0 1 .03.07v.05l.01.01v.03l.01.02v.06l.01.02v5.99zM1063 938a8 8 0 1 0 0 16 8 8 0 0 0 0-16z"/></defs><g><g transform="translate(-1055 -938)"><use fill="#222" xlink:href="#o60ca"/></g></g></svg>