<svg xmlns="http://www.w3.org/2000/svg" xmlns:xlink="http://www.w3.org/1999/xlink" width="18" height="18" viewBox="0 0 18 18"><defs><path id="4us0a" d="M1511.14 607.8c0 1.24-1 2.24-2.23 2.24h-5.82c-1.23 0-2.23-1-2.23-2.24v-1.15a.7.7 0 1 1 1.39 0v1.15c0 .47.38.85.84.85h5.82c.46 0 .84-.38.84-.85v-1.15a.7.7 0 1 1 1.4 0zm-8.8-5.4l3.15-3.14.03-.03h.01l.02-.02.01-.01h.01l.02-.02h.01l.02-.02h.01l.02-.02h.01l.02-.02h.02l.01-.01h.02l.01-.01.02-.01h.01l.03-.01.03-.01h.03l.02-.01h.03l.02-.01H1506.14v.01h.04l.02.02h.04l.01.01h.02l.02.01v.01h.03l.01.01.02.01v.01l.03.01.03.02.03.02.02.02.02.02h.01l.03.03 3.16 3.16a.71.71 0 1 1-1.02 1l-.74-.74a.7.7 0 0 0-1.2.5v2.9a.72.72 0 0 1-1.43.01v-2.9a.7.7 0 0 0-1.18-.5l-.75.75a.71.71 0 0 1-1.02-.01.72.72 0 0 1 0-1.02zm3.66-6.12a8.72 8.72 0 1 0 0 17.44 8.72 8.72 0 0 0 0-17.44z"/></defs><g><g transform="translate(-1497 -596)"><use fill="#0b0a0a" xlink:href="#4us0a"/></g></g></svg>