<svg xmlns="http://www.w3.org/2000/svg" xmlns:xlink="http://www.w3.org/1999/xlink" width="17" height="16" viewBox="0 0 17 16"><defs><path id="otama" d="M888.6 657h-2.41a1.21 1.21 0 1 1 0-2.42h2.4c.03 0 .04-.02.04-.04v-2.4a1.21 1.21 0 1 1 2.43 0v2.4c0 1.36-1.1 2.47-2.47 2.47zm-8.66 0h-2.4a2.47 2.47 0 0 1-2.48-2.46v-2.4a1.22 1.22 0 0 1 2.44 0v2.4c0 .02.01.04.03.04h2.41a1.21 1.21 0 1 1 0 2.43zm-3.66-9.9c-.67 0-1.22-.55-1.22-1.22v-2.41a2.46 2.46 0 0 1 2.47-2.47h2.41a1.21 1.21 0 0 1 0 2.43h-2.41l-.03.01v2.44c0 .67-.55 1.22-1.22 1.22zm13.57 0c-.68 0-1.22-.55-1.22-1.22v-2.41a.03.03 0 0 0-.03-.04h-2.41a1.21 1.21 0 1 1 0-2.43h2.4c1.36 0 2.47 1.1 2.47 2.47v2.41c0 .67-.54 1.22-1.21 1.22z"/></defs><g><g transform="translate(-875 -641)"><use fill="#fff" xlink:href="#otama"/></g></g></svg>