<svg xmlns="http://www.w3.org/2000/svg" xmlns:xlink="http://www.w3.org/1999/xlink" width="12" height="12" viewBox="0 0 12 12"><defs><path id="giaya" d="M680 615.6a5.4 5.4 0 1 0 0 10.8 5.4 5.4 0 0 0 0-10.8zm0 .81a4.57 4.57 0 0 1 4.23 6.37 4.57 4.57 0 0 1-6.02 2.45 4.57 4.57 0 0 1-2.44-6.02 4.57 4.57 0 0 1 4.23-2.8"/><path id="giayb" d="M679.45 623.87v-4.16h1.1v4.16zm0-4.72v-1.02h1.1v1.02z"/></defs><g><g transform="translate(-674 -615)"><use fill="#bfbfbf" xlink:href="#giaya"/></g><g transform="translate(-674 -615)"><use fill="#bfbfbf" xlink:href="#giayb"/></g></g></svg>