<svg xmlns="http://www.w3.org/2000/svg" xmlns:xlink="http://www.w3.org/1999/xlink" width="30" height="30" viewBox="0 0 30 30"><defs><path id="tns0a" d="M1533.67 1555.45c.55.61.85 1.4.85 2.38v6.7c0 .98-.3 1.84-.91 2.38-.55.55-1.4.86-2.38.86h-6.64c-.98 0-1.77-.3-2.38-.86a3.36 3.36 0 0 1-.92-2.43v-6.71c0-.98.3-1.83.86-2.38.55-.55 1.4-.85 2.37-.85h6.71c1.04 0 1.83.3 2.44.91zm-1.58 5.67a4.2 4.2 0 0 0-4.21-4.14 4.15 4.15 0 0 0 0 8.29c2.31 0 4.2-1.83 4.2-4.15zm1.1-4.33a.96.96 0 0 0-.98-.97.96.96 0 0 0-.98.97c0 .55.43.98.98.98s.97-.43.97-.98z"/><path id="tns0b" d="M1528 1546c8.3 0 15.06 6.7 15 15a14.99 14.99 0 1 1-30 0c0-8.3 6.7-15 15-15zm7.99 11.83c0-1.4-.43-2.56-1.28-3.42a4.69 4.69 0 0 0-3.42-1.34h-6.7a4.51 4.51 0 0 0-4.76 4.76v6.7c0 1.4.43 2.63 1.34 3.48a4.75 4.75 0 0 0 3.42 1.28h6.64c1.34 0 2.56-.42 3.42-1.28a4.83 4.83 0 0 0 1.34-3.47z"/></defs><g><g transform="translate(-1513 -1546)"><use fill="#fff" xlink:href="#tns0a"/></g><g transform="translate(-1513 -1546)"><use fill="#fff" xlink:href="#tns0b"/></g></g></svg>