<svg xmlns="http://www.w3.org/2000/svg" xmlns:xlink="http://www.w3.org/1999/xlink" width="16" height="16" viewBox="0 0 16 16"><defs><path id="tg8ta" d="M979.04 947a1 1 0 0 1-.38 1.48c.1.16.17.36.17.57 0 .55-.46 1-1.02 1-2.7 0-3-.35-3.68-.64-.45-.2-.84-.37-1.78-.43a.37.37 0 0 0-.4.38c0 .2-.16.36-.36.36h-.9a.27.27 0 0 1-.27-.27v-5.32c0-.14.12-.26.27-.26h.9c.2 0 .36.15.36.35 0 .26.26.44.5.35.26-.1.5-.24.69-.44.4-.42.62-1.04.62-1.8v-.31c0-.63.5-1.14 1.14-1.13.61.01 1.1.53 1.1 1.14v.01c0 .89.72 1.6 1.6 1.6h.6c.55 0 1 .44 1.02.98 0 .23-.06.44-.19.6a1 1 0 0 1 .01 1.78zm-4.04-9a8 8 0 1 0 0 16 8 8 0 0 0 0-16z"/></defs><g><g transform="translate(-967 -938)"><use fill="#222" xlink:href="#tg8ta"/></g></g></svg>