<svg xmlns="http://www.w3.org/2000/svg" xmlns:xlink="http://www.w3.org/1999/xlink" width="13" height="10" viewBox="0 0 13 10"><defs><path id="jvgda" d="M428.63 15.24h1.2c.4 0 .71.32.71.7v8.12a.7.7 0 0 1-.7.7h-1.21a.7.7 0 0 1-.7-.7v-8.11c0-.4.3-.7.7-.7z"/><path id="jvgdb" d="M418.54 20.94l6.79 3.91c.72.42 1.62-.1 1.62-.93v-7.84c0-.83-.9-1.35-1.62-.93l-6.8 3.91a1.08 1.08 0 0 0 0 1.88z"/></defs><g><g transform="translate(-418 -15)"><use fill="#fff" xlink:href="#jvgda"/></g><g transform="translate(-418 -15)"><use fill="#fff" xlink:href="#jvgdb"/></g></g></svg>