<?xml version="1.0" encoding="UTF-8" standalone="no"?>
<svg
   xmlns:dc="http://purl.org/dc/elements/1.1/"
   xmlns:cc="http://creativecommons.org/ns#"
   xmlns:rdf="http://www.w3.org/1999/02/22-rdf-syntax-ns#"
   xmlns:svg="http://www.w3.org/2000/svg"
   xmlns="http://www.w3.org/2000/svg"
   xmlns:xlink="http://www.w3.org/1999/xlink"
   xmlns:sodipodi="http://sodipodi.sourceforge.net/DTD/sodipodi-0.dtd"
   xmlns:inkscape="http://www.inkscape.org/namespaces/inkscape"
   width="13"
   height="10"
   viewBox="0 0 13 10"
   version="1.1"
   id="svg16"
   sodipodi:docname="media-backward-hover.svg"
   inkscape:version="0.92.2 5c3e80d, 2017-08-06">
  <metadata
     id="metadata20">
    <rdf:RDF>
      <cc:Work
         rdf:about="">
        <dc:format>image/svg+xml</dc:format>
        <dc:type
           rdf:resource="http://purl.org/dc/dcmitype/StillImage" />
        <dc:title></dc:title>
      </cc:Work>
    </rdf:RDF>
  </metadata>
  <sodipodi:namedview
     pagecolor="#ffffff"
     bordercolor="#666666"
     borderopacity="1"
     objecttolerance="10"
     gridtolerance="10"
     guidetolerance="10"
     inkscape:pageopacity="0"
     inkscape:pageshadow="2"
     inkscape:window-width="775"
     inkscape:window-height="480"
     id="namedview18"
     showgrid="false"
     inkscape:zoom="23.6"
     inkscape:cx="6.5"
     inkscape:cy="5"
     inkscape:window-x="0"
     inkscape:window-y="0"
     inkscape:window-maximized="0"
     inkscape:current-layer="g14" />
  <defs
     id="defs4">
    <path
       id="jvgda"
       d="M428.63 15.24h1.2c.4 0 .71.32.71.7v8.12a.7.7 0 0 1-.7.7h-1.21a.7.7 0 0 1-.7-.7v-8.11c0-.4.3-.7.7-.7z" />
    <path
       id="jvgdb"
       d="M418.54 20.94l6.79 3.91c.72.42 1.62-.1 1.62-.93v-7.84c0-.83-.9-1.35-1.62-.93l-6.8 3.91a1.08 1.08 0 0 0 0 1.88z" />
  </defs>
  <g
     id="g14">
    <g
       transform="translate(-418 -15)"
       id="g8"
       style="fill:#cccccc">
      <use
         fill="#fff"
         xlink:href="#jvgda"
         id="use6"
         style="fill:#cccccc" />
    </g>
    <g
       transform="translate(-418 -15)"
       id="g12"
       style="fill:#cccccc">
      <use
         fill="#fff"
         xlink:href="#jvgdb"
         id="use10"
         style="fill:#cccccc" />
    </g>
  </g>
</svg>
