<svg xmlns="http://www.w3.org/2000/svg" xmlns:xlink="http://www.w3.org/1999/xlink" width="13" height="10" viewBox="0 0 13 10"><defs><path id="ec0ka" d="M459.2 24.76H458a.7.7 0 0 1-.7-.7v-8.12c0-.39.31-.7.7-.7h1.21c.39 0 .7.31.7.7v8.11c0 .4-.31.7-.7.7z"/><path id="ec0kb" d="M469.29 19.06l-6.79-3.91c-.72-.42-1.62.1-1.62.93v7.84c0 .83.9 1.35 1.62.93l6.79-3.91c.72-.42.72-1.46 0-1.88z"/></defs><g><g transform="translate(-457 -15)"><use fill="#fff" xlink:href="#ec0ka"/></g><g transform="translate(-457 -15)"><use fill="#fff" xlink:href="#ec0kb"/></g></g></svg>