<svg xmlns="http://www.w3.org/2000/svg" xmlns:xlink="http://www.w3.org/1999/xlink" width="8" height="10" viewBox="0 0 8 10"><defs><path id="nxxwa" d="M442.29 24.74h-1.2a.7.7 0 0 1-.7-.7v-8.08c0-.39.3-.7.7-.7h1.2c.39 0 .7.31.7.7v8.08a.7.7 0 0 1-.7.7z"/><path id="nxxwb" d="M446.93 24.74h-1.21a.7.7 0 0 1-.7-.7v-8.08c0-.39.31-.7.7-.7h1.2c.4 0 .7.31.7.7v8.08a.7.7 0 0 1-.7.7z"/></defs><g><g transform="translate(-440 -15)"><use fill="#fff" xlink:href="#nxxwa"/></g><g transform="translate(-440 -15)"><use fill="#fff" xlink:href="#nxxwb"/></g></g></svg>