<svg xmlns="http://www.w3.org/2000/svg" xmlns:xlink="http://www.w3.org/1999/xlink" width="22" height="23" viewBox="0 0 22 23"><defs><path id="w25ia" d="M595.87 338.18l-6.19-6.19a.57.57 0 0 0-.8 0l-.03.03a2 2 0 0 0-.34 2.4l-6.47 5.54a2.68 2.68 0 0 0-3.7.1l-.04.05a.57.57 0 0 0 0 .8l3.7 3.71-3.6 3.6a55.47 55.47 0 0 0-4.2 4.83.57.57 0 0 0 .8.8c.02 0 .26-.2 1.6-1.28a55.45 55.45 0 0 0 3.24-2.91l3.6-3.6 3.5 3.5a.57.57 0 0 0 .81 0l.04-.04a2.68 2.68 0 0 0 .1-3.7l5.56-6.47a2 2 0 0 0 2.4-.34l.02-.02a.57.57 0 0 0 0-.81z"/></defs><g><g transform="translate(-574 -331)"><use fill="#57e6ff" xlink:href="#w25ia"/></g></g></svg>