<svg xmlns="http://www.w3.org/2000/svg" xmlns:xlink="http://www.w3.org/1999/xlink" width="22" height="22" viewBox="0 0 22 22"><defs><path id="4v0va" d="M702 832.4a8.42 8.42 0 0 1-8.4-8.4c0-4.62 3.78-8.4 8.4-8.4 4.62 0 8.4 3.78 8.4 8.4 0 4.62-3.78 8.4-8.4 8.4zm0-18.9c-5.78 0-10.5 4.72-10.5 10.5s4.72 10.5 10.5 10.5 10.5-4.72 10.5-10.5-4.72-10.5-10.5-10.5z"/><path id="4v0vb" d="M700.74 827.5h-.9a.52.52 0 0 1-.51-.52v-5.96c0-.29.23-.52.52-.52h.89c.28 0 .52.23.52.52v5.96c0 .29-.24.52-.52.52z"/><path id="4v0vc" d="M704.16 827.5h-.9a.52.52 0 0 1-.5-.52v-5.96c0-.29.22-.52.5-.52h.9c.29 0 .52.23.52.52v5.96c0 .29-.23.52-.52.52z"/></defs><g><g transform="translate(-691 -813)"><use fill="#3ed4e0" xlink:href="#4v0va"/></g><g transform="translate(-691 -813)"><use fill="#3ed4e0" xlink:href="#4v0vb"/></g><g transform="translate(-691 -813)"><use fill="#3ed4e0" xlink:href="#4v0vc"/></g></g></svg>