<svg xmlns="http://www.w3.org/2000/svg" xmlns:xlink="http://www.w3.org/1999/xlink" width="115" height="113" viewBox="0 0 115 113"><defs><path id="m5nva" d="M518.43 195.92c31.68.55 56.92 26.28 56.36 57.5-.56 31.2-26.7 56.06-58.38 55.52-31.68-.54-56.92-26.28-56.36-57.49.56-31.2 26.7-56.07 58.38-55.53z"/><path id="m5nvc" d="M558.4 251.73c0-21.9-18.31-39.82-40.69-39.82-22.37 0-40.68 17.92-40.68 39.82s18.3 39.83 40.68 39.83 40.69-17.92 40.69-39.83zm10.17 0c0 27.38-22.89 49.79-50.86 49.79s-50.85-22.4-50.85-49.79c0-27.38 22.88-49.78 50.85-49.78 27.97 0 50.86 22.4 50.86 49.78zm-61.03-22.4l30.52 22.4-30.52 22.4z"/><clipPath id="m5nvb"><use fill="#fff" xlink:href="#m5nva"/></clipPath></defs><g><g transform="translate(-460 -196)"><use fill="#faae03" fill-opacity=".34" xlink:href="#m5nva"/><use fill="#fff" fill-opacity="0" stroke="#707070" stroke-miterlimit="50" stroke-width="2" clip-path="url(&quot;#m5nvb&quot;)" xlink:href="#m5nva"/></g><g transform="translate(-460 -196)"><use fill="#fff" xlink:href="#m5nvc"/></g></g></svg>