<svg xmlns="http://www.w3.org/2000/svg" xmlns:xlink="http://www.w3.org/1999/xlink" width="23" height="22" viewBox="0 0 23 22"><defs><path id="1pkda" d="M573.48 126.73a8.7 8.7 0 0 0-8.77-8.58 8.7 8.7 0 0 0-8.77 8.58 8.7 8.7 0 0 0 8.77 8.59 8.7 8.7 0 0 0 8.77-8.59zm2.2 0c0 5.9-4.94 10.74-10.97 10.74a10.88 10.88 0 0 1-10.96-10.74c0-5.9 4.93-10.73 10.96-10.73 6.03 0 10.97 4.83 10.97 10.73zm-13.16-4.83l6.58 4.83-6.58 4.83z"/></defs><g><g transform="translate(-553 -116)"><use fill="#faae03" xlink:href="#1pkda"/></g></g></svg>