<svg xmlns="http://www.w3.org/2000/svg" xmlns:xlink="http://www.w3.org/1999/xlink" width="99" height="100" viewBox="0 0 99 100"><defs><path id="h81za" d="M538.45 323.55c27.15.47 48.76 23 48.29 50.3-.48 27.32-22.87 49.08-50.02 48.6-27.14-.47-48.76-23-48.28-50.3.47-27.32 22.87-49.08 50.01-48.6z"/><path id="h81zc" d="M572.7 372.39a34.96 34.96 0 0 0-34.86-34.86 34.96 34.96 0 0 0-34.86 34.86 34.96 34.96 0 0 0 34.86 34.85 34.96 34.96 0 0 0 34.85-34.85zm8.7 0a43.7 43.7 0 0 1-43.56 43.57 43.7 43.7 0 0 1-43.57-43.57 43.7 43.7 0 0 1 43.57-43.57 43.7 43.7 0 0 1 43.57 43.57zm-52.27-19.6l26.14 19.6-26.14 19.6z"/><clipPath id="h81zb"><use fill="#fff" xlink:href="#h81za"/></clipPath></defs><g><g transform="translate(-488 -323)"><use fill="#525252" xlink:href="#h81za"/><use fill="#fff" fill-opacity="0" stroke="#707070" stroke-miterlimit="50" stroke-width="2" clip-path="url(&quot;#h81zb&quot;)" xlink:href="#h81za"/></g><g transform="translate(-488 -323)"><use fill="#fff" xlink:href="#h81zc"/></g></g></svg>