<svg xmlns="http://www.w3.org/2000/svg" xmlns:xlink="http://www.w3.org/1999/xlink" width="41" height="55" viewBox="0 0 41 55"><defs><path id="fhl1a" d="M582.64 409.1c.56-1.13 1.13-2.54 1.69-3.67a11.1 11.1 0 0 0 1.4-3.94c.29-.56.29-1.4.29-2.25 0-.84-.28-1.4-.28-2.25-.28-.85-.28-1.4-.57-2.54-1.68-.56-2.53-2.25-3.94-3.66-.84 0-1.97.29-3.1.29-.56 0-1.12.28-1.4-.29h-.28a2.4 2.4 0 0 1-1.97 0c-.57-.28-1.41 0-1.97 0-.57 0-1.13 0-1.7-.56.85-.56 1.7-1.4 2.82-1.69.28 0 .56-.28.85-.28 1.12-.84 2.81-1.12 3.94-1.69.28-.28.56-.28 1.12-.56h.85c.28-.28.56-.56.56-1.13 0-1.12.28-1.97.28-3.1.28-.84.28-1.96.57-2.8.28-1.14.56-2.54 1.12-3.67.85-2.53 2.25-4.79 4.79-6.2 1.4-.84 3.1-1.4 5.07-2.25.28-1.68 1.12-3.1 1.97-4.78.28-.56.28-1.13 0-1.4-.29-.57-.29-1.42-.57-1.98 1.13-.56 2.26-.56 3.38-.56 1.4-.57 2.54-1.7 4.22-1.41 1.41-.84 2.82 0 4.23.28.28 0 .28.28.56.28 1.69 1.13 3.1 2.54 3.66 4.5.28.57.56 1.42.56 2.26.28.84.28 1.69.28 2.53 0 .57 0 1.13-.28 1.97-.28.57.28 1.13-.28 1.7 0 1.4-.28 2.53-.28 3.93 0 1.13.56 2.26 1.13 3.38.56 1.7.28 3.38.28 4.79-.57 1.4-1.13 2.81-1.97 4.22l-2.54 3.38c-.28.28-.56.84-.84 1.13a17.68 17.68 0 0 1-3.38 3.1l-.84.84c0 .84.28 1.69.28 2.53.28.85.84 1.4 1.69 1.97.28.28.84.57 1.12.85.57.56 1.13 1.12 1.7 1.4.84.57 1.4 1.41 1.68 2.26.28 1.12 1.13 1.97 1.4 3.1 0 .28.29.56.57.84 0 .28.28.84.28 1.4-.56 0-1.12-.56-1.12-.84-.28-.84-.85-1.4-.85-2.25 0-.28-.28-.28-.56-.56-.56.84 0 1.97-.56 2.81-.28.85.28 1.97-.57 2.54h-.28c-.28-1.7.57-3.1 0-4.8-.56 0-.84.57-1.12.85-.29.57-.29.85-.57 1.13-.28.28-.56.28-.84.84.56-2.25 1.97-3.94 2.53-5.9-.28-1.13-1.12-1.7-1.97-2.54-.84-.85-1.69-1.4-2.53-1.97-1.13-.57-1.97-1.41-3.1-1.97l-.56-.57-.57-.56c-.84.28-1.12.28-1.4.28-.28 0-.85.28-1.13 0-.28-.28-.84-.28-1.13-.28h-5.63a25.7 25.7 0 0 1-2.25 3.66v2.82c0 1.12.28 1.97.85 2.81.56 1.13 1.12 2.54 1.69 3.66 0 .28.28.56.28.85-.57 0-.85-.29-.85-.57-.56-1.4-1.4-2.53-1.97-3.94l-.56.56c0 .57.28 1.41 0 1.98-.28.56-.28 1.12-.28 1.97 0 .56 0 1.12-.57 1.69l-.56-.57c0-1.4.28-3.1.28-4.5-.56-.28-.84 0-.84.56-.28.56-.56 1.4-.85 1.97-.28.28-.56.28-.56.56z"/></defs><g><g transform="translate(-571 -356)"><use fill="#ff6262" xlink:href="#fhl1a"/></g></g></svg>