<svg xmlns="http://www.w3.org/2000/svg" xmlns:xlink="http://www.w3.org/1999/xlink" width="28" height="28" viewBox="0 0 28 28"><defs><path id="efela" d="M819.28 282.8c-.48.2-1 .36-1.54.42a2.7 2.7 0 0 0 1.18-1.49c-.52.3-1.1.53-1.7.65a2.7 2.7 0 0 0-4.59 2.46 7.65 7.65 0 0 1-5.56-2.81 2.7 2.7 0 0 0 .83 3.6 2.72 2.72 0 0 1-1.21-.34v.03c0 1.3.92 2.4 2.16 2.64a2.62 2.62 0 0 1-1.22.04 2.7 2.7 0 0 0 2.52 1.87 5.4 5.4 0 0 1-3.99 1.12c1.2.76 2.6 1.2 4.13 1.2a7.6 7.6 0 0 0 7.66-7.65v-.35c.51-.38.97-.85 1.33-1.4zm-6.72 17.5a13.59 13.59 0 1 1 0-27.18 13.59 13.59 0 0 1 0 27.18z"/></defs><g><g transform="translate(-799 -273)"><use fill="#030303" xlink:href="#efela"/></g></g></svg>