<svg xmlns="http://www.w3.org/2000/svg" xmlns:xlink="http://www.w3.org/1999/xlink" width="16" height="13" viewBox="0 0 16 13"><defs><path id="3gnia" d="M774.79 308.92c-.58.26-1.2.43-1.84.5a3.2 3.2 0 0 0 1.4-1.76 6.4 6.4 0 0 1-2.02.77 3.19 3.19 0 0 0-5.45 2.92c-2.65-.14-5-1.4-6.58-3.34a3.2 3.2 0 0 0 .99 4.26 3.18 3.18 0 0 1-1.45-.4 3.2 3.2 0 0 0 2.56 3.18 3.2 3.2 0 0 1-1.44.05 3.2 3.2 0 0 0 2.98 2.22 6.42 6.42 0 0 1-4.73 1.32c1.42.91 3.1 1.44 4.9 1.44 5.93 0 9.28-5.01 9.08-9.5a6.5 6.5 0 0 0 1.6-1.66z"/></defs><g><g transform="translate(-759 -307)"><use fill="#fff" xlink:href="#3gnia"/></g></g></svg>