<svg xmlns="http://www.w3.org/2000/svg" xmlns:xlink="http://www.w3.org/1999/xlink" width="28" height="28" viewBox="0 0 28 28"><defs><path id="a522a" d="M748.4 300.3a13.59 13.59 0 1 1 0-27.18 13.59 13.59 0 0 1 0 27.18z"/><path id="a522b" d="M752.72 283.15a.87.87 0 1 1-1.73 0 .87.87 0 0 1 1.73 0zm-2.31 3.85a2.4 2.4 0 1 0-4.82 0 2.4 2.4 0 0 0 4.82 0zm1.3 0a3.7 3.7 0 1 1-7.42 0 3.7 3.7 0 0 1 7.42 0zm-3.71-7.22c1.96 0 2.2 0 2.98.04 2.62.12 4.08 1.58 4.2 4.2.03.77.04 1.02.04 2.98s0 2.2-.04 2.98c-.12 2.62-1.58 4.08-4.2 4.2-.77.03-1.02.04-2.98.04s-2.2 0-2.98-.04c-2.62-.12-4.08-1.58-4.2-4.2-.03-.77-.04-1.02-.04-2.98s0-2.2.04-2.98c.12-2.62 1.58-4.08 4.2-4.2.77-.03 1.02-.04 2.98-.04zm-2.92 1.34c-1.96.1-2.87 1.02-2.96 2.96-.03.76-.04 1-.04 2.92 0 1.93 0 2.16.04 2.92.1 1.94 1 2.87 2.96 2.96.76.03 1 .04 2.92.04 1.93 0 2.16 0 2.92-.04 1.96-.1 2.87-1.02 2.96-2.96.03-.76.04-1 .04-2.92 0-1.93 0-2.16-.04-2.92-.1-1.94-1-2.87-2.96-2.96-.76-.03-1-.04-2.92-.04-1.93 0-2.16 0-2.92.04z"/></defs><g><g transform="translate(-734 -273)"><use fill="#030303" xlink:href="#a522a"/></g><g transform="translate(-734 -273)"><use fill="#fff" xlink:href="#a522b"/></g></g></svg>