<svg xmlns="http://www.w3.org/2000/svg" xmlns:xlink="http://www.w3.org/1999/xlink" width="16" height="16" viewBox="0 0 16 16"><defs><path id="pbs0a" d="M701.57 309.88a.92.92 0 1 1-1.84 0 .92.92 0 0 1 1.84 0zm-2.45 4.08a2.55 2.55 0 1 0-5.1 0 2.55 2.55 0 0 0 5.1 0zm1.38 0a3.93 3.93 0 1 1-7.87 0 3.93 3.93 0 0 1 7.87 0zm-.78-7.6c2.78.12 4.33 1.67 4.45 4.45.04.81.05 1.07.05 3.15s0 2.34-.05 3.16c-.12 2.78-1.67 4.33-4.45 4.45-.82.04-1.08.05-3.15.05-2.08 0-2.34-.01-3.16-.05-2.78-.12-4.33-1.67-4.45-4.45-.04-.82-.05-1.08-.05-3.16s0-2.34.05-3.15c.12-2.79 1.67-4.33 4.45-4.46.82-.03 1.08-.04 3.16-.04 2.07 0 2.33 0 3.15.05zm-3.15 1.33c-2.05 0-2.3 0-3.1.04-2.07.1-3.04 1.08-3.14 3.14-.03.8-.04 1.05-.04 3.1 0 2.04 0 2.28.04 3.09.1 2.05 1.06 3.04 3.14 3.14.8.03 1.05.04 3.1.04 2.04 0 2.28 0 3.09-.04 2.08-.1 3.04-1.09 3.14-3.14.03-.8.04-1.05.04-3.1 0-2.04 0-2.28-.04-3.09-.1-2.06-1.07-3.04-3.14-3.14a53 53 0 0 0-3.1-.04z"/></defs><g><g transform="translate(-689 -306)"><use fill="#fff" xlink:href="#pbs0a"/></g></g></svg>