<svg xmlns="http://www.w3.org/2000/svg" xmlns:xlink="http://www.w3.org/1999/xlink" width="15" height="11" viewBox="0 0 15 11"><defs><path id="jhaja" d="M698.1 1340.71l-4.39 3.14H692c-.4 0-.71.32-.71.71v1.9c0 .39.32.7.7.7h1.72l4.4 3.14c.32.23.58.1.58-.3v-9c0-.38-.26-.52-.58-.29z"/><path id="jhajb" d="M700.5 1340.74a.6.6 0 0 0 0 1.18 3.55 3.55 0 1 1 0 7.11.6.6 0 0 0 0 1.19 4.74 4.74 0 1 0 0-9.48z"/><path id="jhajc" d="M700.5 1346.96a.6.6 0 0 0 0 1.18 2.66 2.66 0 1 0 0-5.33.6.6 0 0 0 0 1.19 1.48 1.48 0 0 1 0 2.96z"/></defs><g><g transform="translate(-691 -1340)"><use fill="#fff" xlink:href="#jhaja"/></g><g transform="translate(-691 -1340)"><use fill="#fff" xlink:href="#jhajb"/></g><g transform="translate(-691 -1340)"><use fill="#fff" xlink:href="#jhajc"/></g></g></svg>