<?xml version="1.0" encoding="UTF-8" standalone="no"?>
<svg
   xmlns:dc="http://purl.org/dc/elements/1.1/"
   xmlns:cc="http://creativecommons.org/ns#"
   xmlns:rdf="http://www.w3.org/1999/02/22-rdf-syntax-ns#"
   xmlns:svg="http://www.w3.org/2000/svg"
   xmlns="http://www.w3.org/2000/svg"
   xmlns:xlink="http://www.w3.org/1999/xlink"
   xmlns:sodipodi="http://sodipodi.sourceforge.net/DTD/sodipodi-0.dtd"
   xmlns:inkscape="http://www.inkscape.org/namespaces/inkscape"
   width="25"
   height="32"
   viewBox="0 0 25 32"
   version="1.1"
   id="svg16"
   sodipodi:docname="logo-icon.svg"
   inkscape:version="0.92.2 5c3e80d, 2017-08-06">
  <metadata
     id="metadata20">
    <rdf:RDF>
      <cc:Work
         rdf:about="">
        <dc:format>image/svg+xml</dc:format>
        <dc:type
           rdf:resource="http://purl.org/dc/dcmitype/StillImage" />
      </cc:Work>
    </rdf:RDF>
  </metadata>
  <sodipodi:namedview
     pagecolor="#ffffff"
     bordercolor="#666666"
     borderopacity="1"
     objecttolerance="10"
     gridtolerance="10"
     guidetolerance="10"
     inkscape:pageopacity="0"
     inkscape:pageshadow="2"
     inkscape:window-width="1215"
     inkscape:window-height="749"
     id="namedview18"
     showgrid="false"
     inkscape:zoom="7.375"
     inkscape:cx="12.5"
     inkscape:cy="16"
     inkscape:window-x="0"
     inkscape:window-y="0"
     inkscape:window-maximized="0"
     inkscape:current-layer="svg16" />
  <defs
     id="defs8">
    <path
       id="3ybia"
       d="M971.7 474.83a28.26 28.26 0 0 0-2.27-6.7 15.23 15.23 0 0 0-3.38-4.65 8.43 8.43 0 0 0-10.49-.97l.98 5.37 3.3-2.08c-.2 4.02-.4 7.9-.61 12.43l-1.66-8.43-3.38 2.13.43-8.72-.31.27a15.4 15.4 0 0 0-3.37 4.66 28.08 28.08 0 0 0-2.27 6.69c-.43 2-.71 4-.66 6.05.1 4.44 2.8 8.32 6.68 10.01 1.76.77 3.6 1.13 5.5 1.12 1.9.02 3.73-.35 5.5-1.12a11.25 11.25 0 0 0 6.68-10c.05-2.06-.24-4.07-.67-6.06z" />
    <radialGradient
       id="3ybib"
       cx="0"
       cy="0"
       r="0"
       gradientUnits="userSpaceOnUse">
      <stop
         offset="0"
         stop-color="#e8e849"
         id="stop3" />
      <stop
         offset="1"
         stop-color="#7a1f1f"
         id="stop5" />
    </radialGradient>
  </defs>
  <g
     id="g14"
     style="fill:#d4ff2a">
    <g
       transform="translate(-948 -461)"
       id="g12"
       style="fill:#d4ff2a">
      <use
         fill="url(#3ybib)"
         xlink:href="#3ybia"
         id="use10"
         style="fill:#d4ff2a" />
    </g>
  </g>
</svg>
